<?xml version="1.0" encoding="UTF-8"?>
<svg version="1.1" xmlns="http://www.w3.org/2000/svg" width="512" height="512">
<path d="M0 0 C1.77985794 -0.07994957 1.77985794 -0.07994957 3.59567261 -0.16151428 C14.60727614 -0.6292998 25.62435743 -0.90895059 36.6435442 -1.12333202 C44.02393015 -1.27029188 51.39128946 -1.47881539 58.76416016 -1.84863281 C112.24101988 -4.47828511 112.24101988 -4.47828511 129.05091 10.15311337 C148.75051178 28.85874117 148.75051178 28.85874117 149.18432617 40.75073242 C147.3804923 44.94124365 144.3568795 47.82340325 141.14916992 51.01635742 C140.66984512 51.495224 140.19052032 51.97409058 139.69667053 52.46746826 C138.68963586 53.47149876 137.68018886 54.47311497 136.66845703 55.47241211 C135.11777287 57.00473773 133.57534253 58.54501792 132.03393555 60.08666992 C123.54513772 68.53300257 123.54513772 68.53300257 119.05932617 69.25073242 C113.5415428 68.53876037 110.98420536 65.60545522 107.18432617 61.75073242 C106.71438232 61.06366211 106.24443848 60.3765918 105.76025391 59.66870117 C101.58727964 56.56161314 97.14260535 57.14728064 92.07495117 57.14135742 C90.99300476 57.12482117 89.91105835 57.10828491 88.79632568 57.09124756 C85.3422686 57.04268141 81.88865207 57.02137676 78.43432617 57.00073242 C76.09185599 56.97258007 73.7494064 56.94265368 71.40698242 56.91088867 C65.66589263 56.8335813 59.92620451 56.7931392 54.18432617 56.75073242 C54.18432617 64.67073242 54.18432617 72.59073242 54.18432617 80.75073242 C57.81432617 80.75073242 61.44432617 80.75073242 65.18432617 80.75073242 C71.65647915 82.41500033 74.39785414 84.29375803 78.18432617 89.75073242 C79.99549041 92.81823224 80.44275364 95.05602902 80.47485352 98.60766602 C80.48761322 99.56901459 80.50037292 100.53036316 80.51351929 101.52084351 C80.51574493 102.55319122 80.51797058 103.58553894 80.52026367 104.64916992 C80.53024887 106.25074448 80.53024887 106.25074448 80.54043579 107.88467407 C80.55055669 110.1424182 80.55525299 112.4001922 80.55493164 114.65795898 C80.55930123 118.10605361 80.59561837 121.55286452 80.63354492 125.00073242 C80.63941393 127.19604055 80.64338276 129.39135475 80.64526367 131.58666992 C80.6596347 132.61496918 80.67400574 133.64326843 80.68881226 134.70272827 C80.650597 140.71240583 80.1712488 144.16221332 76.18432617 148.75073242 C75.32967773 149.4680957 75.32967773 149.4680957 74.45776367 150.19995117 C72.35353062 152.76246811 72.78868826 155.33339916 72.80932617 158.56323242 C72.8015918 159.76592773 72.79385742 160.96862305 72.78588867 162.20776367 C73.38736455 167.55618149 74.74538339 170.594331 78.96948242 173.98901367 C80.05100586 174.67350586 81.1325293 175.35799805 82.24682617 176.06323242 C88.42919337 180.11547506 93.83561622 184.63336806 99.18432617 189.75073242 C99.8469043 190.35014648 100.50948242 190.94956055 101.19213867 191.56713867 C105.71848879 195.80944657 109.43614021 200.53211103 113.12182617 205.50073242 C113.60707764 206.15122559 114.0923291 206.80171875 114.59228516 207.47192383 C115.27013062 208.40657471 115.27013062 208.40657471 115.96166992 209.36010742 C116.36635498 209.91666016 116.77104004 210.47321289 117.18798828 211.04663086 C118.28585507 212.9243839 118.75555058 214.62743803 119.18432617 216.75073242 C120.11245117 215.79166992 120.11245117 215.79166992 121.05932617 214.81323242 C122.09639011 213.78772351 123.13889814 212.76771343 124.18432617 211.75073242 C124.86624023 211.08428711 125.5481543 210.4178418 126.25073242 209.73120117 C133.37234767 203.0319552 141.40875529 197.13851786 150.18432617 192.75073242 C150.19890869 191.58614502 150.21349121 190.42155762 150.22851562 189.22167969 C150.28685929 184.8659118 150.36408765 180.51064151 150.44677734 176.15527344 C150.47985802 174.27677538 150.50794144 172.39818196 150.53076172 170.51953125 C150.56462003 167.80582353 150.61694833 165.09297666 150.67260742 162.37963867 C150.67899734 161.55113907 150.68538727 160.72263947 150.69197083 159.86903381 C150.8933136 151.7300428 152.69432643 144.59536009 158.24682617 138.43823242 C158.93905273 137.63772461 159.6312793 136.8372168 160.34448242 136.01245117 C168.54494708 129.48140711 177.40898055 129.11201782 187.48852539 129.22924805 C189.68121897 129.25070202 191.87063786 129.22935841 194.06323242 129.20385742 C203.95114349 129.18342352 212.45168012 130.1411054 220.05932617 137.00073242 C227.06859267 144.70431305 228.3404194 152.46123826 228.07885742 162.52416992 C228.05489599 165.15144284 228.04140205 167.77866062 228.02783203 170.40600586 C228.00719849 172.21590869 227.96689767 174.02569638 227.90673828 175.8347168 C227.53618738 184.40813958 227.53618738 184.40813958 229.18432617 192.75073242 C232.70674177 196.39613883 236.52745993 197.91211592 241.18432617 199.75073242 C243.71048204 201.41874555 245.97276811 203.31880031 248.24682617 205.31323242 C248.82770996 205.81935059 249.40859375 206.32546875 250.00708008 206.84692383 C271.12437973 225.83571998 282.83774191 253.71976858 285.18432617 281.75073242 C285.37149298 286.70274087 285.42261847 291.65505792 285.45776367 296.61010742 C285.46308735 297.31489479 285.46841103 298.01968216 285.47389603 298.74582672 C285.50045237 302.46571253 285.51989503 306.18556658 285.53442383 309.90551758 C285.5478301 312.97645405 285.57582775 316.04673655 285.61645508 319.11743164 C285.66570681 322.84201693 285.69053178 326.5660042 285.69765091 330.29090118 C285.70436189 331.70553401 285.7195804 333.1201535 285.74354172 334.5345993 C285.77511443 336.508426 285.77223418 338.48271285 285.76782227 340.45678711 C285.77590912 341.57849304 285.78399597 342.70019897 285.79232788 343.855896 C285.18432617 346.75073242 285.18432617 346.75073242 282.77285767 349.144104 C280.18432617 350.75073242 280.18432617 350.75073242 278.18432617 350.75073242 C278.18432617 357.02073242 278.18432617 363.29073242 278.18432617 369.75073242 C279.83432617 370.41073242 281.48432617 371.07073242 283.18432617 371.75073242 C285.65824777 374.22465402 285.43466593 375.65924379 285.4776001 379.03677368 C285.47669373 379.77277802 285.47578735 380.50878235 285.47485352 381.26708984 C285.48157074 382.04308029 285.48828796 382.81907074 285.49520874 383.61857605 C285.5142815 386.1978489 285.51811972 388.77686205 285.52026367 391.35620117 C285.5266929 393.15586961 285.53342136 394.955537 285.54043579 396.75520325 C285.5524371 400.54076552 285.55611446 404.32623644 285.55493164 408.11181641 C285.55473005 412.92411481 285.58185189 417.73581195 285.61647606 422.54796886 C285.6389216 426.27418099 285.64276358 430.00025351 285.64171219 433.72652626 C285.64404864 435.49765374 285.65275972 437.26878625 285.66837692 439.03984642 C285.82865665 459.12284871 281.71343268 476.55185745 267.43945312 491.5703125 C253.86667047 505.32274509 238.1933087 512.9500667 218.75812817 513.1816597 C216.36362035 513.19355417 213.96947759 513.1900288 211.57495117 513.18432617 C209.87782587 513.18889966 208.1807024 513.19420865 206.48358154 513.20021057 C202.94006797 513.20910044 199.39678024 513.20676751 195.85327148 513.19677734 C191.35394189 513.18531706 186.85540065 513.20547496 182.35617447 513.23469448 C178.85385332 513.25321133 175.35171552 513.25273314 171.8493576 513.24705696 C170.19267423 513.2469055 168.53597699 513.25280161 166.87934113 513.26534843 C153.52758862 513.35221936 140.80916586 512.01891268 128.99682617 505.18823242 C127.97202148 504.60944336 126.9472168 504.0306543 125.89135742 503.43432617 C123.18432617 501.75073242 123.18432617 501.75073242 121.13354492 499.91088867 C120.49030273 499.52803711 119.84706055 499.14518555 119.18432617 498.75073242 C115.60693111 499.67338336 112.7623615 501.56567183 109.68432617 503.56323242 C101.01452501 508.8664991 91.3404561 512.84749265 81.08363342 512.89790344 C80.0788797 512.90505875 79.07412598 512.91221405 78.03892517 512.91958618 C76.40172264 512.92361954 76.40172264 512.92361954 74.73144531 512.92773438 C72.9938092 512.93759117 72.9938092 512.93759117 71.22106934 512.94764709 C67.38720633 512.96735578 63.55338253 512.97903961 59.71948242 512.98901367 C57.75016156 512.99512696 57.75016156 512.99512696 55.74105644 513.00136375 C49.50360851 513.02040546 43.26617227 513.03463421 37.02870089 513.04297572 C29.86223673 513.05272097 22.69608367 513.07897316 15.52972895 513.11947662 C9.97021721 513.14980376 4.41079374 513.16446049 -1.148799 513.16775674 C-4.459216 513.17008992 -7.76922777 513.18084653 -11.07957268 513.20421791 C-37.58510656 513.37966418 -37.58510656 513.37966418 -48.81567383 508.75073242 C-49.50654587 508.47568878 -50.19741791 508.20064514 -50.90922546 507.91726685 C-59.05399467 504.35644202 -65.61688799 499.01353326 -71.81567383 492.75073242 C-72.86174805 491.75493164 -72.86174805 491.75493164 -73.92895508 490.73901367 C-78.31923191 486.26348874 -81.30483866 481.42133648 -84.12817383 475.87573242 C-84.45382324 475.24014404 -84.77947266 474.60455566 -85.11499023 473.94970703 C-91.20795548 461.35345984 -91.2901883 449.18889329 -91.28442383 435.47338867 C-91.29153366 433.41360774 -91.29923385 431.35382876 -91.30749512 429.29405212 C-91.3208812 424.99822458 -91.32253251 420.70258074 -91.31665039 416.40673828 C-91.3107237 410.899614 -91.34149551 405.39336201 -91.38176727 399.8864069 C-91.40757967 395.64250429 -91.41052825 391.39881457 -91.40687561 387.15484428 C-91.40856924 385.12342553 -91.41823502 383.0919972 -91.4360199 381.06065559 C-91.45810897 378.22896055 -91.4485634 375.39907063 -91.4309082 372.56738281 C-91.44417145 371.72942673 -91.45743469 370.89147064 -91.47109985 370.02812195 C-91.41269511 366.00491118 -91.21717078 364.17511832 -88.40222168 361.19969177 C-85.81567383 359.75073242 -85.81567383 359.75073242 -83.81567383 359.75073242 C-83.81567383 353.48073242 -83.81567383 347.21073242 -83.81567383 340.75073242 C-85.46567383 340.09073242 -87.11567383 339.43073242 -88.81567383 338.75073242 C-91.89547448 335.67093177 -91.1401015 332.01438139 -91.15161133 327.87963867 C-91.15994492 326.97853363 -91.1682785 326.07742859 -91.17686462 325.14901733 C-91.1964369 322.20358707 -91.196293 319.25871775 -91.19067383 316.31323242 C-91.19046234 315.31365509 -91.19025085 314.31407776 -91.19003296 313.28421021 C-91.15577679 297.12682574 -90.26313149 281.58949744 -86.81567383 265.75073242 C-86.52684326 264.41800293 -86.52684326 264.41800293 -86.23217773 263.05834961 C-84.99147223 257.54617593 -83.52176605 252.13648434 -81.81567383 246.75073242 C-81.49542236 245.73825439 -81.49542236 245.73825439 -81.16870117 244.70532227 C-71.38941912 214.71016813 -52.32267267 189.41705206 -25.77661133 172.32104492 C-22.43371882 169.64406726 -21.91123338 167.55655675 -21.40942383 163.32495117 C-20.91636066 154.82429952 -20.91636066 154.82429952 -24.75317383 147.56323242 C-25.57108398 146.86133789 -25.57108398 146.86133789 -26.40551758 146.14526367 C-29.11340956 143.46737604 -28.94705023 139.83538185 -28.99267578 136.20092773 C-29.01192863 134.85868134 -29.01192863 134.85868134 -29.03157043 133.48931885 C-29.03895737 132.52886658 -29.0463443 131.56841431 -29.05395508 130.57885742 C-29.06202682 129.58247253 -29.07009857 128.58608765 -29.07841492 127.55950928 C-29.09223502 125.45139292 -29.10296643 123.34325438 -29.11083984 121.23510742 C-29.12235781 119.0859519 -29.1428066 116.93682494 -29.17236328 114.7878418 C-29.21515392 111.67631663 -29.23122534 108.56564075 -29.24145508 105.45385742 C-29.25896317 104.50150208 -29.27647125 103.54914673 -29.29450989 102.56793213 C-29.2707368 95.19410238 -27.73679886 89.67185745 -22.44067383 84.37573242 C-15.52767737 80.09625842 -11.62653392 80.75073242 -2.81567383 80.75073242 C-2.81567383 72.83073242 -2.81567383 64.91073242 -2.81567383 56.75073242 C-5.12567383 56.75073242 -7.43567383 56.75073242 -9.81567383 56.75073242 C-17.38754496 55.5351812 -22.79814141 51.3916857 -27.81567383 45.75073242 C-32.33178536 38.87081595 -33.64619711 31.89668679 -32.81567383 23.75073242 C-30.55217209 14.9781972 -27.10268002 9.18227484 -19.79223633 3.86401367 C-13.50029204 0.32013201 -7.04049111 0.28218095 0 0 Z " fill="#FB6FCD" transform="translate(149.815673828125,-0.750732421875)"/>
<path d="M0 0 C20.46 0 40.92 0 62 0 C62.33 6.27 62.66 12.54 63 19 C66.52034591 27.09679559 70.9099421 31.03062906 78 36 C96.16319601 49.51110292 108.69454668 64.310718 118 85 C118.79857422 86.69769531 118.79857422 86.69769531 119.61328125 88.4296875 C128.66419286 109.05734651 131.74508456 131.92021197 132.2265625 154.2578125 C132.24524887 155.08816513 132.26393524 155.91851776 132.28318787 156.77403259 C132.3753552 161.00223774 132.44693406 165.22919185 132.48364258 169.45825195 C132.50835759 171.03337012 132.53333039 172.60848428 132.55859375 174.18359375 C132.55860382 174.91196442 132.55861389 175.64033508 132.55862427 176.39077759 C132.61923336 179.45559987 132.83856248 181.69344456 134.27758789 184.42602539 C136.19019987 186.17380844 137.45739248 186.64929551 140 187 C140.17455021 190.24931927 140.28091753 193.49743448 140.375 196.75 C140.42527344 197.67039062 140.47554687 198.59078125 140.52734375 199.5390625 C140.58421365 202.15507806 140.57031011 204.44437576 140 207 C137.0390625 209.578125 137.0390625 209.578125 134 211 C132.21557636 212.78442364 132.86972817 215.18778523 132.85655212 217.56460571 C132.85708084 218.36345184 132.85760956 219.16229797 132.8581543 219.98535156 C132.85467987 220.82292999 132.85120544 221.66050842 132.84762573 222.52346802 C132.84025164 224.35084616 132.83491511 226.17823335 132.83133507 228.00562286 C132.82417645 230.90777333 132.80850942 233.80975403 132.78999329 236.71185303 C132.73753127 244.96673085 132.68965333 253.221522 132.67407227 261.4765625 C132.66392329 266.52240889 132.63441263 271.56783735 132.59275246 276.61351776 C132.58052224 278.5285906 132.57530645 280.44372274 132.57755089 282.35883331 C132.59324577 300.14146499 130.053273 315.86705657 117.25 329.3125 C100.77912411 344.77994957 82.77117399 345.75991786 61.2734375 345.62890625 C58.79253027 345.62973663 56.31162311 345.63220237 53.83071899 345.63621521 C48.65487932 345.63905965 43.47947562 345.62450211 38.30371094 345.59692383 C31.69910643 345.56280861 25.09527878 345.56888473 18.49063683 345.5875864 C13.37565738 345.59819771 8.26085602 345.58918158 3.1458931 345.57420158 C0.71165115 345.56905207 -1.72260963 345.56946189 -4.15684891 345.57574654 C-25.13069363 345.60958641 -40.82024507 343.40453795 -56.6796875 328.46484375 C-70.01073182 314.30341452 -71.73633929 297.83759003 -71.6015625 279.390625 C-71.6070747 277.44625971 -71.61521009 275.50190028 -71.62582397 273.55755615 C-71.64850933 268.48871349 -71.64455829 263.42030575 -71.63201904 258.35144043 C-71.6135674 250.19838179 -71.62360862 242.04556899 -71.65787888 233.8925705 C-71.66398382 231.05223013 -71.65073531 228.21242919 -71.63589478 225.37213135 C-71.63884059 223.64164082 -71.64249396 221.9111513 -71.64697266 220.18066406 C-71.63768234 219.39215057 -71.62839203 218.60363708 -71.61882019 217.79122925 C-71.61330048 213.72452535 -71.61330048 213.72452535 -73.27206421 210.1137085 C-75.09870481 208.93638167 -77.05624809 207.97187595 -79 207 C-79 200.4 -79 193.8 -79 187 C-76.525 186.01 -76.525 186.01 -74 185 C-71.20285062 182.20285062 -71.68417713 179.56214337 -71.65625 175.81640625 C-71.62786408 174.32568329 -71.59946175 172.83496065 -71.57104492 171.34423828 C-71.55979584 170.56308655 -71.54854675 169.78193481 -71.53695679 168.97711182 C-71.47534305 164.95151166 -71.37426793 160.92702301 -71.26953125 156.90234375 C-71.24909256 156.11585449 -71.22865387 155.32936523 -71.20759583 154.51904297 C-70.9677084 145.93687055 -70.30544243 137.48725685 -69 129 C-68.87786133 128.1853125 -68.75572266 127.370625 -68.62988281 126.53125 C-64.61577561 100.71655574 -55.92465861 76.23143028 -39 56 C-37.95779297 54.71416016 -37.95779297 54.71416016 -36.89453125 53.40234375 C-30.39326015 45.74055432 -22.67729376 40.08254832 -14.56640625 34.25 C-7.18950172 28.89512034 -3.20008937 23.91036193 -1 15 C-0.67 10.05 -0.34 5.1 0 0 Z " fill="#86E7FD" transform="translate(145,152)"/>
<path d="M0 0 C1.77985794 -0.07994957 1.77985794 -0.07994957 3.59567261 -0.16151428 C14.60727614 -0.6292998 25.62435743 -0.90895059 36.6435442 -1.12333202 C44.02393015 -1.27029188 51.39128946 -1.47881539 58.76416016 -1.84863281 C112.24101988 -4.47828511 112.24101988 -4.47828511 129.05091 10.15311337 C148.75051178 28.85874117 148.75051178 28.85874117 149.18432617 40.75073242 C147.3804923 44.94124365 144.3568795 47.82340325 141.14916992 51.01635742 C140.66984512 51.495224 140.19052032 51.97409058 139.69667053 52.46746826 C138.68963586 53.47149876 137.68018886 54.47311497 136.66845703 55.47241211 C135.11777287 57.00473773 133.57534253 58.54501792 132.03393555 60.08666992 C123.54513772 68.53300257 123.54513772 68.53300257 119.05932617 69.25073242 C113.5415428 68.53876037 110.98420536 65.60545522 107.18432617 61.75073242 C106.71438232 61.06366211 106.24443848 60.3765918 105.76025391 59.66870117 C101.58727964 56.56161314 97.14260535 57.14728064 92.07495117 57.14135742 C90.99300476 57.12482117 89.91105835 57.10828491 88.79632568 57.09124756 C85.3422686 57.04268141 81.88865207 57.02137676 78.43432617 57.00073242 C76.09185599 56.97258007 73.7494064 56.94265368 71.40698242 56.91088867 C65.66589263 56.8335813 59.92620451 56.7931392 54.18432617 56.75073242 C54.18432617 64.67073242 54.18432617 72.59073242 54.18432617 80.75073242 C57.81432617 80.75073242 61.44432617 80.75073242 65.18432617 80.75073242 C71.65647915 82.41500033 74.39785414 84.29375803 78.18432617 89.75073242 C79.99549041 92.81823224 80.44275364 95.05602902 80.47485352 98.60766602 C80.48761322 99.56901459 80.50037292 100.53036316 80.51351929 101.52084351 C80.51574493 102.55319122 80.51797058 103.58553894 80.52026367 104.64916992 C80.53024887 106.25074448 80.53024887 106.25074448 80.54043579 107.88467407 C80.55055669 110.1424182 80.55525299 112.4001922 80.55493164 114.65795898 C80.55930123 118.10605361 80.59561837 121.55286452 80.63354492 125.00073242 C80.63941393 127.19604055 80.64338276 129.39135475 80.64526367 131.58666992 C80.6596347 132.61496918 80.67400574 133.64326843 80.68881226 134.70272827 C80.650597 140.71240583 80.1712488 144.16221332 76.18432617 148.75073242 C75.32967773 149.4680957 75.32967773 149.4680957 74.45776367 150.19995117 C72.35353062 152.76246811 72.78868826 155.33339916 72.80932617 158.56323242 C72.8015918 159.76592773 72.79385742 160.96862305 72.78588867 162.20776367 C73.38736455 167.55618149 74.74538339 170.594331 78.96948242 173.98901367 C80.05100586 174.67350586 81.1325293 175.35799805 82.24682617 176.06323242 C88.42919337 180.11547506 93.83561622 184.63336806 99.18432617 189.75073242 C99.8469043 190.35014648 100.50948242 190.94956055 101.19213867 191.56713867 C105.71848879 195.80944657 109.43614021 200.53211103 113.12182617 205.50073242 C113.60707764 206.15122559 114.0923291 206.80171875 114.59228516 207.47192383 C115.27013062 208.40657471 115.27013062 208.40657471 115.96166992 209.36010742 C116.36635498 209.91666016 116.77104004 210.47321289 117.18798828 211.04663086 C118.28585507 212.9243839 118.75555058 214.62743803 119.18432617 216.75073242 C120.11245117 215.79166992 120.11245117 215.79166992 121.05932617 214.81323242 C122.09639011 213.78772351 123.13889814 212.76771343 124.18432617 211.75073242 C124.86624023 211.08428711 125.5481543 210.4178418 126.25073242 209.73120117 C133.37234767 203.0319552 141.40875529 197.13851786 150.18432617 192.75073242 C150.19890869 191.58614502 150.21349121 190.42155762 150.22851562 189.22167969 C150.28685929 184.8659118 150.36408765 180.51064151 150.44677734 176.15527344 C150.47985802 174.27677538 150.50794144 172.39818196 150.53076172 170.51953125 C150.56462003 167.80582353 150.61694833 165.09297666 150.67260742 162.37963867 C150.67899734 161.55113907 150.68538727 160.72263947 150.69197083 159.86903381 C150.8933136 151.7300428 152.69432643 144.59536009 158.24682617 138.43823242 C158.93905273 137.63772461 159.6312793 136.8372168 160.34448242 136.01245117 C168.54494708 129.48140711 177.40898055 129.11201782 187.48852539 129.22924805 C189.68121897 129.25070202 191.87063786 129.22935841 194.06323242 129.20385742 C203.95114349 129.18342352 212.45168012 130.1411054 220.05932617 137.00073242 C227.06859267 144.70431305 228.3404194 152.46123826 228.07885742 162.52416992 C228.05489599 165.15144284 228.04140205 167.77866062 228.02783203 170.40600586 C228.00719849 172.21590869 227.96689767 174.02569638 227.90673828 175.8347168 C227.53618738 184.40813958 227.53618738 184.40813958 229.18432617 192.75073242 C232.70674177 196.39613883 236.52745993 197.91211592 241.18432617 199.75073242 C243.71048204 201.41874555 245.97276811 203.31880031 248.24682617 205.31323242 C248.82770996 205.81935059 249.40859375 206.32546875 250.00708008 206.84692383 C271.12437973 225.83571998 282.83774191 253.71976858 285.18432617 281.75073242 C285.37149298 286.70274087 285.42261847 291.65505792 285.45776367 296.61010742 C285.46308735 297.31489479 285.46841103 298.01968216 285.47389603 298.74582672 C285.50045237 302.46571253 285.51989503 306.18556658 285.53442383 309.90551758 C285.5478301 312.97645405 285.57582775 316.04673655 285.61645508 319.11743164 C285.66570681 322.84201693 285.69053178 326.5660042 285.69765091 330.29090118 C285.70436189 331.70553401 285.7195804 333.1201535 285.74354172 334.5345993 C285.77511443 336.508426 285.77223418 338.48271285 285.76782227 340.45678711 C285.77590912 341.57849304 285.78399597 342.70019897 285.79232788 343.855896 C285.18432617 346.75073242 285.18432617 346.75073242 282.78335571 349.14044189 C280.18432617 350.75073242 280.18432617 350.75073242 278.01635742 350.80932617 C277.01668945 350.50188477 277.01668945 350.50188477 275.99682617 350.18823242 C275.32264648 350.00131836 274.6484668 349.8144043 273.95385742 349.62182617 C272.18432617 348.75073242 272.18432617 348.75073242 270.18432617 345.75073242 C269.91931152 343.2510376 269.91931152 343.2510376 269.8972168 340.23217773 C269.88380249 339.09959534 269.87038818 337.96701294 269.85656738 336.80010986 C269.84865173 334.9580899 269.84865173 334.9580899 269.84057617 333.07885742 C269.82595337 331.80911072 269.81133057 330.53936401 269.79626465 329.23114014 C269.7496758 325.15436647 269.71524743 321.07764613 269.68432617 317.00073242 C269.82466351 289.64150209 269.82466351 289.64150209 265.05932617 262.81323242 C264.7417334 261.69537354 264.7417334 261.69537354 264.41772461 260.55493164 C257.52349525 237.63719451 242.83056611 219.63956981 222.18432617 207.75073242 C219.06778522 206.71188544 216.79843901 206.58654965 213.52636719 206.52612305 C211.78293785 206.49234558 211.78293785 206.49234558 210.00428772 206.45788574 C204.66371367 206.38664648 199.3233124 206.32913854 193.98242188 206.29077148 C191.17417344 206.26860131 188.36727621 206.2269932 185.55957031 206.16772461 C181.49809093 206.08218376 177.43805244 206.05538384 173.37573242 206.03198242 C172.13465225 205.99899048 170.89357208 205.96599854 169.61488342 205.93200684 C154.68897649 205.96584084 145.23785985 214.74161789 135.18432617 224.75073242 C134.48436523 225.41588867 133.7844043 226.08104492 133.06323242 226.76635742 C131.14141061 228.63322354 131.14141061 228.63322354 129.18432617 231.75073242 C129.50048977 238.00915024 131.66236699 243.81853007 133.55932617 249.75073242 C140.38641497 271.79390944 142.32956046 293.48529818 142.53579712 316.4828186 C142.55142846 318.11405379 142.57317517 319.74524233 142.60116577 321.37631226 C142.63690358 323.68253553 142.64508902 325.98723321 142.64526367 328.29370117 C142.65953903 328.98753906 142.67381439 329.68137695 142.68852234 330.39624023 C142.65737358 333.72333112 142.38366822 335.4830161 140.37426758 338.18164062 C137.14769937 340.49347495 135.04875407 340.37180119 131.18432617 339.75073242 C128.19599843 336.94485979 127.25704672 335.27135596 126.68603516 331.18334961 C126.66479122 329.8049313 126.6641157 328.426093 126.68041992 327.04760742 C126.67231293 326.3011496 126.66420593 325.55469177 126.65585327 324.78561401 C126.63892778 323.18707452 126.62990532 321.58843519 126.62808228 319.98980713 C126.61751832 315.78679666 126.53035535 311.58553913 126.44213867 307.38354492 C126.42522476 306.54983368 126.40831085 305.71612244 126.3908844 304.85714722 C125.51737016 267.06022094 114.79084556 228.66244895 87.66479492 201.19995117 C82.69017235 196.51666814 77.48608004 192.48567063 71.87182617 188.62573242 C64.98250418 183.88406761 60.90099686 179.18407379 57.18432617 171.75073242 C57.18432617 165.48073242 57.18432617 159.21073242 57.18432617 152.75073242 C36.72432617 152.75073242 16.26432617 152.75073242 -4.81567383 152.75073242 C-4.81567383 157.70073242 -4.81567383 162.65073242 -4.81567383 167.75073242 C-8.15264167 179.36338051 -14.87914346 185.29986764 -24.48022461 191.97607422 C-49.37182417 209.33147275 -64.55411068 238.30116116 -70.26489258 267.72338867 C-70.68612764 270.08517411 -71.09886663 272.44849034 -71.50317383 274.81323242 C-71.71522461 275.98950195 -71.92727539 277.16577148 -72.14575195 278.37768555 C-73.96269626 288.74630464 -74.83309223 298.92585909 -74.99145508 309.43823242 C-75.00355515 310.196035 -75.01565521 310.95383759 -75.02812195 311.73460388 C-75.07636738 314.87461035 -75.12405948 318.01418991 -75.14160156 321.15454102 C-75.15704029 323.47890136 -75.1971355 325.80176708 -75.24145508 328.12573242 C-75.23954666 328.8330249 -75.23763824 329.54031738 -75.235672 330.26904297 C-75.31973023 333.64184421 -75.58957384 335.4560604 -77.66796875 338.16479492 C-80.49400212 340.2516328 -82.30057791 340.75073242 -85.81567383 340.75073242 C-88.46777344 339.31738281 -88.46777344 339.31738281 -90.81567383 336.75073242 C-91.55822673 333.73166413 -91.49185479 330.78056482 -91.44458008 327.68432617 C-91.44866882 326.78605103 -91.45275757 325.88777588 -91.45697021 324.96228027 C-91.45954923 322.03667539 -91.42168505 319.11349096 -91.37817383 316.18823242 C-91.37046967 315.19365021 -91.3627655 314.19906799 -91.35482788 313.17434692 C-91.22325732 297.09369849 -90.24547682 281.50838599 -86.81567383 265.75073242 C-86.52684326 264.41800293 -86.52684326 264.41800293 -86.23217773 263.05834961 C-84.99147223 257.54617593 -83.52176605 252.13648434 -81.81567383 246.75073242 C-81.49542236 245.73825439 -81.49542236 245.73825439 -81.16870117 244.70532227 C-71.38941912 214.71016813 -52.32267267 189.41705206 -25.77661133 172.32104492 C-22.43371882 169.64406726 -21.91123338 167.55655675 -21.40942383 163.32495117 C-20.91636066 154.82429952 -20.91636066 154.82429952 -24.75317383 147.56323242 C-25.57108398 146.86133789 -25.57108398 146.86133789 -26.40551758 146.14526367 C-29.11340956 143.46737604 -28.94705023 139.83538185 -28.99267578 136.20092773 C-29.01192863 134.85868134 -29.01192863 134.85868134 -29.03157043 133.48931885 C-29.03895737 132.52886658 -29.0463443 131.56841431 -29.05395508 130.57885742 C-29.06202682 129.58247253 -29.07009857 128.58608765 -29.07841492 127.55950928 C-29.09223502 125.45139292 -29.10296643 123.34325438 -29.11083984 121.23510742 C-29.12235781 119.0859519 -29.1428066 116.93682494 -29.17236328 114.7878418 C-29.21515392 111.67631663 -29.23122534 108.56564075 -29.24145508 105.45385742 C-29.25896317 104.50150208 -29.27647125 103.54914673 -29.29450989 102.56793213 C-29.2707368 95.19410238 -27.73679886 89.67185745 -22.44067383 84.37573242 C-15.52767737 80.09625842 -11.62653392 80.75073242 -2.81567383 80.75073242 C-2.81567383 72.83073242 -2.81567383 64.91073242 -2.81567383 56.75073242 C-5.12567383 56.75073242 -7.43567383 56.75073242 -9.81567383 56.75073242 C-17.38754496 55.5351812 -22.79814141 51.3916857 -27.81567383 45.75073242 C-32.33178536 38.87081595 -33.64619711 31.89668679 -32.81567383 23.75073242 C-30.55217209 14.9781972 -27.10268002 9.18227484 -19.79223633 3.86401367 C-13.50029204 0.32013201 -7.04049111 0.28218095 0 0 Z " fill="#010101" transform="translate(149.815673828125,-0.750732421875)"/>
<path d="M0 0 C20.87788921 13.034161 31.40584188 34.40828799 39 57 C39.22558594 57.66999023 39.45117188 58.33998047 39.68359375 59.03027344 C48.47563118 86.05285908 48.759042 119.08223338 44 147 C43.77401123 148.331521 43.77401123 148.331521 43.54345703 149.68994141 C39.35420374 173.26807304 31.07915711 195.86347043 15 214 C14.38640625 214.70769531 13.7728125 215.41539062 13.140625 216.14453125 C4.55906553 225.41758001 -6.64155088 231.19817449 -19.19140625 232.2734375 C-34.85189407 232.74524826 -46.33397874 226.24892561 -57.625 215.8125 C-86.63445045 184.93815631 -91.17526609 139.24608776 -90.15234375 99 C-89.88343799 90.83678931 -88.71218083 82.97276328 -87 75 C-86.83371094 74.15904785 -86.66742188 73.3180957 -86.49609375 72.45166016 C-81.73759589 48.53139638 -72.52931711 26.29765213 -55 9 C-53.94619141 7.948125 -53.94619141 7.948125 -52.87109375 6.875 C-38.59100507 -6.5107801 -17.17323059 -9.63958835 0 0 Z " fill="#FDE065" transform="translate(197,225)"/>
<path d="M0 0 C3.44879234 0.00730728 6.88642727 -0.08143219 10.33374023 -0.17626953 C29.33317108 -0.3874555 29.33317108 -0.3874555 36.78491211 6.33935547 C39.55541992 9.19799805 39.55541992 9.19799805 42.01928711 12.13232422 C42.95902652 13.16274601 43.9032624 14.18908583 44.85205078 15.21118164 C61.79810624 33.89238504 71.09846936 60.31087824 71.159729 85.40499878 C71.16270013 86.09081532 71.16567125 86.77663185 71.1687324 87.48323071 C71.17732984 89.75673689 71.17891995 92.03018986 71.18041992 94.30371094 C71.18505431 95.94381826 71.1900798 97.58392451 71.19546509 99.22402954 C71.2085279 103.66210185 71.21502158 108.10015908 71.21947575 112.53824759 C71.22241529 115.31501179 71.22652164 118.09177194 71.23097992 120.86853409 C71.2446363 129.56847992 71.25431306 138.26841642 71.25818181 146.96837223 C71.2626636 156.98960114 71.28022495 167.01069374 71.30918241 177.03188121 C71.33083008 184.79434545 71.34088767 192.5567714 71.34222293 200.31926548 C71.34326838 204.9484407 71.34912122 209.57748744 71.36704254 214.20663071 C71.3835776 218.56187247 71.3856525 222.91688988 71.37690353 227.27215195 C71.37613617 228.86439619 71.38043598 230.45665278 71.39036179 232.04886627 C71.4727046 246.08806878 69.70236132 256.68704027 60.05053711 267.29638672 C50.10957984 276.91318234 39.27251862 278.91012978 25.83959961 278.79638672 C24.413804 278.79976514 22.98801123 278.80462624 21.56222534 278.81088257 C18.59873576 278.81819161 15.63600748 278.80773557 12.67260742 278.78417969 C8.88618801 278.75553577 5.10152892 278.77222888 1.3151722 278.80204201 C-1.61897976 278.82014516 -4.55271652 278.81434627 -7.48688126 278.80140305 C-8.88304991 278.79808539 -10.27925715 278.80209807 -11.67538071 278.81380081 C-23.86957026 278.89370248 -23.86957026 278.89370248 -27.83862305 275.75634766 C-30.27690406 272.7694951 -30.69854214 271.55844467 -30.48071289 267.75732422 C-30.42786133 266.79439453 -30.37500977 265.83146484 -30.32055664 264.83935547 C-29.89664768 261.4627013 -29.01912075 258.36971343 -27.98071289 255.13232422 C-26.93675083 248.57141155 -26.81123729 242.11871786 -26.77539062 235.48388672 C-26.76054123 233.77038277 -26.76054123 233.77038277 -26.74539185 232.02226257 C-26.71394434 228.2673038 -26.68908591 224.51233241 -26.66430664 220.75732422 C-26.64372264 218.14558595 -26.6227258 215.53385091 -26.60133362 212.92211914 C-26.55158349 206.76357339 -26.50657971 200.60500261 -26.46331125 194.44640827 C-26.41378696 187.43060729 -26.35892558 180.41485114 -26.30363166 173.39909363 C-26.19008333 158.97687967 -26.08318606 144.55462107 -25.98071289 130.13232422 C-25.32071289 130.13232422 -24.66071289 130.13232422 -23.98071289 130.13232422 C-23.32071289 130.99857422 -22.66071289 131.86482422 -21.98071289 132.75732422 C-16.6839944 139.36650393 -7.2390677 144.1951942 1.13720703 145.44946289 C3.33703384 145.60503657 5.50161504 145.65127848 7.70678711 145.63232422 C8.48916748 145.626604 9.27154785 145.62088379 10.07763672 145.61499023 C21.11170736 145.27980368 31.30257722 141.15046809 39.01928711 133.13232422 C41.73069354 129.63715186 43.95553491 126.04170846 46.01928711 122.13232422 C46.38151367 121.44783203 46.74374023 120.76333984 47.11694336 120.05810547 C51.03080259 110.79227129 50.54267362 97.8008192 46.95678711 88.56982422 C41.98877321 78.55076555 35.92779207 72.36299422 26.01928711 67.13232422 C25.33479492 66.77009766 24.65030273 66.40787109 23.94506836 66.03466797 C14.67923418 62.12080874 1.68778209 62.60893771 -7.54321289 66.19482422 C-15.46414794 70.07849598 -21.58372458 75.21743295 -26.98071289 82.13232422 C-27.31071289 82.13232422 -27.64071289 82.13232422 -27.98071289 82.13232422 C-28.15086914 80.96958984 -28.32102539 79.80685547 -28.49633789 78.60888672 C-30.98840635 61.95119162 -34.18841391 46.33204725 -40.25097656 30.56665039 C-43.98071289 20.83407751 -43.98071289 20.83407751 -43.98071289 17.13232422 C-42.31274414 14.82373047 -42.31274414 14.82373047 -39.79321289 12.69482422 C-38.9952832 11.99486328 -38.19735352 11.29490234 -37.37524414 10.57373047 C-36.24590368 9.75691973 -35.1140471 8.94358449 -33.98071289 8.13232422 C-33.27213135 7.53677734 -32.5635498 6.94123047 -31.83349609 6.32763672 C-22.19114776 -0.68563216 -11.49999891 -0.06708401 0 0 Z " fill="#FE93E5" transform="translate(330.980712890625,203.86767578125)"/>
<path d="M0 0 C3.47613798 1.18336612 4.73176768 2.06484104 6.9375 5 C7.31493059 7.89362662 7.45149714 10.40414119 7.40405273 13.29418945 C7.40635895 14.12899338 7.40866516 14.9637973 7.41104126 15.82389832 C7.41367039 17.63650135 7.40722614 19.44913506 7.39278984 21.26168251 C7.37086096 24.14387751 7.37463698 27.0250248 7.38526917 29.90727234 C7.40692263 37.07484412 7.38975885 44.24218581 7.36376953 51.409729 C7.34221644 57.45357371 7.34065261 63.49674407 7.36668587 69.54057884 C7.37098748 72.35622467 7.34653158 75.17065082 7.32115173 77.98616028 C7.30698173 94.49018056 10.7647943 108.77522769 22.1171875 121.4296875 C33.52317121 132.53649787 47.2741524 137.29600152 62.98071289 137.30639648 C64.59955383 137.31888176 64.59955383 137.31888176 66.25109863 137.33161926 C69.80415505 137.3556297 73.3570274 137.36448186 76.91015625 137.37109375 C79.39627636 137.38006898 81.88239595 137.38919098 84.36851501 137.39845276 C89.57763986 137.41492252 94.7867006 137.42263885 99.99584961 137.42553711 C106.63746138 137.43090943 113.27844613 137.46855169 119.9199152 137.51428127 C125.05639283 137.54417918 130.19272572 137.55126349 135.32928276 137.55226326 C137.77586089 137.55644258 140.22244037 137.56878367 142.66893196 137.58978081 C162.53872864 137.74670115 179.12822854 135.93184828 194.5625 122.125 C204.29572378 111.94228453 209.26567745 97.98556268 209.19287109 84.07714844 C209.19649155 83.22409119 209.200112 82.37103394 209.20384216 81.49212646 C209.21069486 79.65448825 209.21324941 77.81682987 209.21189499 75.97917938 C209.21092452 73.07047375 209.2239305 70.16213231 209.24087524 67.253479 C209.28701056 58.98900071 209.31177672 50.72456376 209.31835938 42.45996094 C209.32336683 37.39314053 209.34756681 32.3267069 209.38368607 27.2600174 C209.39349158 25.33191497 209.39581193 23.40375943 209.39051437 21.47563934 C209.38346299 18.78509393 209.40068203 16.09570906 209.42333984 13.40527344 C209.41108116 12.21140015 209.41108116 12.21140015 209.39857483 10.9934082 C209.45146327 7.4696702 209.65171951 5.39305458 211.75088501 2.50592041 C214.96122714 0.29495974 217.13470769 0.45674396 220.9375 1 C223.12390137 2.4936676 223.12390137 2.4936676 224.9375 5 C225.33218698 7.99025663 225.48473899 10.61171359 225.45507812 13.60131836 C225.4620874 14.46859558 225.46909668 15.3358728 225.47631836 16.22943115 C225.49393527 19.09989377 225.48225333 21.96937083 225.46875 24.83984375 C225.47144605 26.84322803 225.47532942 28.84661103 225.48034668 30.84999084 C225.48624857 35.05580055 225.47766462 39.26127077 225.45898438 43.46704102 C225.43632684 48.82656009 225.44922936 54.18527203 225.47327423 59.5447607 C225.48782696 63.68782976 225.48308083 67.83071219 225.47276306 71.97378731 C225.47011495 73.94750631 225.47329724 75.92124286 225.48268127 77.89494133 C225.53566348 92.1856611 224.06855095 103.72005073 217.3125 116.5625 C216.72210938 117.69816406 216.13171875 118.83382812 215.5234375 120.00390625 C215.00007812 120.99261719 214.47671875 121.98132813 213.9375 123 C213.26650787 124.33116182 212.59762279 125.66341475 211.9375 127 C212.64261719 127.268125 213.34773437 127.53625 214.07421875 127.8125 C218.08589483 129.47627835 221.86926839 131.53462002 225.70703125 133.5625 C234.44278699 137.44975286 243.00773176 137.31092954 252.390625 137.30078125 C253.89744177 137.30467671 255.40425747 137.3090131 256.91107178 137.31376648 C260.06135626 137.32120069 263.21152863 137.32095869 266.36181641 137.31567383 C270.36704885 137.30989515 274.37181645 137.32678477 278.3769722 137.3500185 C281.48798229 137.36486972 284.59888351 137.365612 287.70992279 137.36250877 C289.1848721 137.36301669 290.65982838 137.36815306 292.13474274 137.37832069 C309.57937148 137.48380268 324.74540063 133.82733509 337.6796875 121.49609375 C349.88666885 108.00083236 352.2269702 93.46424418 352.21189499 75.99007034 C352.21091944 73.49284428 352.22398749 70.99603656 352.24087524 68.49887085 C352.28686997 61.40699321 352.31178467 54.31516662 352.31835938 47.22314453 C352.32336866 42.86721451 352.3475707 38.51173406 352.38368607 34.15595627 C352.39348075 32.50138419 352.39581779 30.84675032 352.39051437 29.19215775 C352.38345668 26.88493673 352.40069115 24.57906591 352.42333984 22.27197266 C352.42618988 20.96088531 352.42903992 19.64979797 352.43197632 18.29898071 C353.02077446 14.45656186 353.86301833 13.29786967 356.9375 11 C359.875 10 359.875 10 362.9375 10 C365.58946228 11.51603699 365.58946228 11.51603699 367.9375 14 C368.43813688 16.78384943 368.61323578 18.96133023 368.56860352 21.7434082 C368.57933647 22.90783195 368.57933647 22.90783195 368.59028625 24.09577942 C368.60720213 26.66471138 368.5877355 29.23190294 368.56640625 31.80078125 C368.56723561 33.59759159 368.56969754 35.39440185 368.57371521 37.19120789 C368.57657638 40.96502421 368.56185755 44.73824823 368.53442383 48.51196289 C368.50060983 53.3086051 368.50626565 58.10416956 368.5250864 62.90086079 C368.53575796 66.61855238 368.52662306 70.33600168 368.51170158 74.05367088 C368.50657503 75.81918806 368.50693312 77.58473119 368.51324654 79.35024452 C368.55985685 100.24608754 363.84113172 117.99042311 348.75390625 133.27734375 C332.86051937 148.64168585 315.93343881 153.48504742 294.328125 153.43359375 C292.63099969 153.43816724 290.93387623 153.44347623 289.23675537 153.44947815 C285.6932418 153.45836801 282.14995407 153.45603509 278.60644531 153.44604492 C274.10711572 153.43458463 269.60857448 153.45474254 265.1093483 153.48396206 C261.60702715 153.50247891 258.10488935 153.50200071 254.60253143 153.49632454 C252.94584806 153.49617308 251.28915082 153.50206919 249.63251495 153.51461601 C236.28076245 153.60148694 223.56233968 152.26818026 211.75 145.4375 C210.72519531 144.85871094 209.70039063 144.27992188 208.64453125 143.68359375 C205.9375 142 205.9375 142 203.88671875 140.16015625 C203.24347656 139.77730469 202.60023438 139.39445313 201.9375 139 C198.36010493 139.92265094 195.51553532 141.8149394 192.4375 143.8125 C183.76769884 149.11576668 174.09362992 153.09676023 163.83680725 153.14717102 C162.83205353 153.15432632 161.8272998 153.16148163 160.792099 153.16885376 C159.15489647 153.17288712 159.15489647 153.17288712 157.48461914 153.17700195 C155.74698303 153.18685875 155.74698303 153.18685875 153.97424316 153.19691467 C150.14038016 153.21662336 146.30655636 153.22830719 142.47265625 153.23828125 C140.50333539 153.24439454 140.50333539 153.24439454 138.49423027 153.25063133 C132.25678234 153.26967304 126.0193461 153.28390179 119.78187472 153.2922433 C112.61541056 153.30198855 105.4492575 153.32824074 98.28290278 153.36874419 C92.72339103 153.39907133 87.16396757 153.41372807 81.60437483 153.41702431 C78.29395782 153.4193575 74.98394606 153.43011411 71.67360115 153.45348549 C45.16806727 153.62893176 45.16806727 153.62893176 33.9375 149 C33.24662796 148.72495636 32.55575592 148.44991272 31.84394836 148.16653442 C23.69917916 144.6057096 17.13628584 139.26280084 10.9375 133 C10.24011719 132.33613281 9.54273437 131.67226563 8.82421875 130.98828125 C4.43394192 126.51275632 1.44833517 121.67060406 -1.375 116.125 C-1.70064941 115.48941162 -2.02629883 114.85382324 -2.36181641 114.19897461 C-8.45478166 101.60272742 -8.53701448 89.43816086 -8.53125 75.72265625 C-8.53835983 73.66287531 -8.54606003 71.60309634 -8.55432129 69.5433197 C-8.56770738 65.24749215 -8.56935868 60.95184832 -8.56347656 56.65600586 C-8.55754987 51.14888158 -8.58832168 45.64262959 -8.62859344 40.13567448 C-8.65440584 35.89177187 -8.65735442 31.64808215 -8.65370178 27.40411186 C-8.65539541 25.37269311 -8.66506119 23.34126478 -8.68284607 21.30992317 C-8.70493514 18.47822813 -8.69538957 15.64833821 -8.67773438 12.81665039 C-8.69099762 11.97869431 -8.70426086 11.14073822 -8.71792603 10.27738953 C-8.66022236 6.3024728 -8.45257483 4.42397839 -5.7154541 1.44895935 C-3.0625 0 -3.0625 0 0 0 Z " fill="#000001" transform="translate(67.0625,359)"/>
<path d="M0 0 C20.46 0 40.92 0 62 0 C62.495 9.405 62.495 9.405 63 19 C66.52034591 27.09679559 70.9099421 31.03062906 78 36 C96.16319601 49.51110292 108.69454668 64.310718 118 85 C118.79857422 86.69769531 118.79857422 86.69769531 119.61328125 88.4296875 C128.66419286 109.05734651 131.74508456 131.92021197 132.2265625 154.2578125 C132.24524887 155.08816513 132.26393524 155.91851776 132.28318787 156.77403259 C132.3753552 161.00223774 132.44693406 165.22919185 132.48364258 169.45825195 C132.50835759 171.03337012 132.53333039 172.60848428 132.55859375 174.18359375 C132.55860382 174.91196442 132.55861389 175.64033508 132.55862427 176.39077759 C132.61923336 179.45559987 132.83856248 181.69344456 134.27758789 184.42602539 C136.19019987 186.17380844 137.45739248 186.64929551 140 187 C140.17455021 190.24931927 140.28091753 193.49743448 140.375 196.75 C140.42527344 197.67039062 140.47554687 198.59078125 140.52734375 199.5390625 C140.58421365 202.15507806 140.57031011 204.44437576 140 207 C137.0390625 209.578125 137.0390625 209.578125 134 211 C132.21557636 212.78442364 132.86972817 215.18778523 132.85655212 217.56460571 C132.85708084 218.36345184 132.85760956 219.16229797 132.8581543 219.98535156 C132.85467987 220.82292999 132.85120544 221.66050842 132.84762573 222.52346802 C132.84025164 224.35084616 132.83491511 226.17823335 132.83133507 228.00562286 C132.82417645 230.90777333 132.80850942 233.80975403 132.78999329 236.71185303 C132.73753127 244.96673085 132.68965333 253.221522 132.67407227 261.4765625 C132.66392329 266.52240889 132.63441263 271.56783735 132.59275246 276.61351776 C132.58052224 278.5285906 132.57530645 280.44372274 132.57755089 282.35883331 C132.59324577 300.14146499 130.053273 315.86705657 117.25 329.3125 C100.77912411 344.77994957 82.77117399 345.75991786 61.2734375 345.62890625 C58.79253027 345.62973663 56.31162311 345.63220237 53.83071899 345.63621521 C48.65487932 345.63905965 43.47947562 345.62450211 38.30371094 345.59692383 C31.69910643 345.56280861 25.09527878 345.56888473 18.49063683 345.5875864 C13.37565738 345.59819771 8.26085602 345.58918158 3.1458931 345.57420158 C0.71165115 345.56905207 -1.72260963 345.56946189 -4.15684891 345.57574654 C-24.71831453 345.60892106 -40.39501004 343.58727323 -56 329 C-56 328.67 -56 328.34 -56 328 C-55.34199811 327.99761165 -54.68399622 327.99522329 -54.00605488 327.99276257 C-37.94521509 327.93345169 -21.88454611 327.85779986 -5.82387257 327.76428509 C1.9431694 327.71944885 9.71016675 327.68000664 17.47729492 327.65356445 C24.2524704 327.63048522 31.02750326 327.59697789 37.8025654 327.55129844 C41.3850777 327.52749897 44.96744993 327.5086838 48.55003929 327.50238609 C52.56375351 327.4951341 56.57698454 327.46458529 60.59057617 327.43237305 C61.75943359 327.43380814 62.92829102 327.43524323 64.13256836 327.4367218 C78.9445075 327.2696691 93.23329899 323.76670101 104 313 C115.23829426 299.81403323 118.13329666 286.48718563 118.17700195 269.65991211 C118.18685875 267.99184006 118.18685875 267.99184006 118.19691467 266.29006958 C118.21657233 262.61916009 118.22830387 258.94829172 118.23828125 255.27734375 C118.24235678 254.01049807 118.2464323 252.74365238 118.25063133 251.43841743 C118.26933237 245.40330147 118.28389159 239.36820977 118.2922433 233.3330726 C118.30096828 227.13575011 118.32010971 220.93867889 118.35668945 214.74145508 C118.68751127 157.46582937 117.72241306 100.07711715 76 56 C75.34128906 55.30003906 74.68257812 54.60007813 74.00390625 53.87890625 C70.47481265 50.23619998 66.81075806 46.99789979 62.8125 43.875 C55.46274678 38.06018 52.00672777 32.4283673 47.94140625 24.0234375 C45.15146254 19.67853522 41.85179152 17.61726384 37 16 C34.19839498 15.8460737 31.41701575 15.74261955 28.61328125 15.68359375 C27.38776802 15.6524221 27.38776802 15.6524221 26.13749695 15.62062073 C23.52924966 15.55526921 20.92090225 15.49630727 18.3125 15.4375 C16.54360946 15.39430108 14.77472903 15.35068635 13.00585938 15.30664062 C8.67067537 15.19960257 4.33539071 15.09829456 0 15 C0 10.05 0 5.1 0 0 Z " fill="#2DD0F6" transform="translate(145,152)"/>
<path d="M0 0 C20.87788921 13.034161 31.40584188 34.40828799 39 57 C39.22558594 57.66999023 39.45117188 58.33998047 39.68359375 59.03027344 C48.47563118 86.05285908 48.759042 119.08223338 44 147 C43.77401123 148.331521 43.77401123 148.331521 43.54345703 149.68994141 C39.35420374 173.26807304 31.07915711 195.86347043 15 214 C14.38640625 214.70769531 13.7728125 215.41539062 13.140625 216.14453125 C4.55906553 225.41758001 -6.64155088 231.19817449 -19.19140625 232.2734375 C-34.85189407 232.74524826 -46.33397874 226.24892561 -57.625 215.8125 C-86.63445045 184.93815631 -91.17526609 139.24608776 -90.15234375 99 C-89.88343799 90.83678931 -88.71218083 82.97276328 -87 75 C-86.83371094 74.15904785 -86.66742188 73.3180957 -86.49609375 72.45166016 C-81.73759589 48.53139638 -72.52931711 26.29765213 -55 9 C-53.94619141 7.948125 -53.94619141 7.948125 -52.87109375 6.875 C-38.59100507 -6.5107801 -17.17323059 -9.63958835 0 0 Z M-50.90234375 26.2421875 C-63.14521203 42.73258151 -69.70812539 62.94354541 -73 83 C-73.30744141 84.62421875 -73.30744141 84.62421875 -73.62109375 86.28125 C-79.79456563 123.40723259 -73.72765478 167.65989892 -51.90625 199.0078125 C-45.06141079 207.85308007 -36.30043771 215.62215738 -24.890625 217.3125 C-15.6179275 217.8386105 -7.16023005 213.98063555 -0.18359375 208.0859375 C23.18355167 185.76383436 30.29261525 149.84893978 31.25390625 118.7578125 C31.58557864 102.51294354 30.63706924 86.89411301 27 71 C26.73509766 69.83041748 26.73509766 69.83041748 26.46484375 68.63720703 C22.6792642 52.65014377 15.71088757 36.54948305 5 24 C4.36449219 23.25363281 3.72898437 22.50726563 3.07421875 21.73828125 C-2.60650099 15.57942478 -10.26619792 10.56292587 -18.78515625 9.7265625 C-32.94102046 9.28788256 -41.89086392 15.62085398 -50.90234375 26.2421875 Z " fill="#020302" transform="translate(197,225)"/>
<path d="M0 0 C10.03241709 6.24553289 16.81527801 15.61647957 20 27 C20.43469358 29.91026514 20.52558618 32.74764803 20.5 35.6875 C20.49355469 36.47060547 20.48710937 37.25371094 20.48046875 38.06054688 C20.11516994 49.81740082 15.46656816 59.82092142 7 68 C3.50708487 70.72932364 -0.07274745 72.95099867 -4 75 C-4.68320312 75.3609375 -5.36640625 75.721875 -6.0703125 76.09375 C-15.33147232 80.01612357 -28.33395945 79.52243306 -37.5625 75.9375 C-48.91231361 70.34893341 -57.37767732 61.87581366 -62 50 C-64.51778016 40.56671699 -64.58484622 27.96942482 -60.2578125 19.1640625 C-59.84273438 18.44992187 -59.42765625 17.73578125 -59 17 C-58.56429688 16.22398437 -58.12859375 15.44796875 -57.6796875 14.6484375 C-45.50426567 -5.24473805 -20.29451782 -11.2139519 0 0 Z " fill="#030203" transform="translate(361,272)"/>
<path d="M0 0 C8.32329122 6.33705127 14.68341978 15.39692013 16.625 25.8125 C17.54023082 40.11110606 15.8773838 50.63083272 6.89453125 62.296875 C1.00141056 68.82900878 -5.90219757 72.68579256 -14.375 74.8125 C-15.179375 75.039375 -15.98375 75.26625 -16.8125 75.5 C-28.96594243 76.98212713 -39.75612238 74.74676961 -49.90234375 67.75390625 C-58.03029013 61.37224851 -63.15090729 52.94658554 -65.375 42.8125 C-66.37329186 28.55118765 -64.92071741 17.18007744 -55.37109375 5.84375 C-40.39619402 -9.39489552 -17.87136406 -11.64346446 0 0 Z " fill="#000101" transform="translate(437.375,61.1875)"/>
<path d="M0 0 C0.94974701 -0.03454285 1.89949402 -0.06908569 2.87802124 -0.10467529 C3.91376282 -0.13204773 4.94950439 -0.15942017 6.01663208 -0.18762207 C7.66162186 -0.24106781 7.66162186 -0.24106781 9.33984375 -0.29559326 C19.49913181 -0.60560434 29.66240786 -0.78276783 39.82543755 -0.91558075 C46.64120171 -1.00649171 53.45050364 -1.13891095 60.26272583 -1.38098145 C109.87964869 -3.11033775 109.87964869 -3.11033775 121.58359718 6.77272797 C126.34569174 11.27888862 130.38959763 16.48121639 133.26321411 22.3885498 C133.26321411 24.3885498 133.26321411 24.3885498 131.65383911 26.00964355 C130.94743286 26.60905762 130.24102661 27.20847168 129.51321411 27.8260498 C128.81712036 28.42288574 128.12102661 29.01972168 127.40383911 29.63464355 C125.39647822 31.27936078 123.35251099 32.84981088 121.26321411 34.3885498 C120.70891724 33.89483887 120.15462036 33.40112793 119.58352661 32.89245605 C118.49684692 31.93145996 118.49684692 31.93145996 117.38821411 30.9510498 C116.66891724 30.31296387 115.94962036 29.67487793 115.20852661 29.01745605 C112.1855781 26.48619194 110.44435998 26.26289033 106.57661438 26.25724792 C105.58822067 26.25323975 104.59982697 26.24923157 103.58148193 26.24510193 C101.94896988 26.245895 101.94896988 26.245895 100.28347778 26.2467041 C99.14029587 26.24322968 97.99711395 26.23975525 96.81929016 26.23617554 C94.33001889 26.22880892 91.840741 26.22346838 89.35146141 26.21988487 C85.41389466 26.21273717 81.47645382 26.19708351 77.53892517 26.17854309 C76.19102388 26.17220555 74.84312254 26.16587993 73.49522114 26.15956593 C72.82013874 26.15640011 72.14505634 26.1532343 71.44951689 26.14997256 C62.28155642 26.1078948 53.11363775 26.07492508 43.94558716 26.06262207 C37.10264179 26.05334482 30.26002131 26.02326178 23.41720009 25.98130226 C20.80610853 25.96896812 18.19497251 25.96387538 15.58385277 25.96610069 C11.93260311 25.96844675 8.28226126 25.946338 4.63113403 25.9185791 C3.54886536 25.92518051 2.46659668 25.93178192 1.35153198 25.93858337 C-5.97034033 25.84700865 -5.97034033 25.84700865 -9.82228088 23.54292297 C-13.67245712 19.2103585 -14.23017125 16.52077864 -14.12350464 10.90026855 C-13.48811524 6.77344651 -11.80316384 5.17616612 -8.73678589 2.3885498 C-5.75498087 0.58918193 -3.46337087 0.11246545 0 0 Z " fill="#EFEBD6" transform="translate(146.73678588867188,14.6114501953125)"/>
<path d="M0 0 C1.04185204 0.00303635 1.04185204 0.00303635 2.10475159 0.00613403 C2.83320282 0.00438171 3.56165405 0.00262939 4.31217957 0.00082397 C6.73207447 -0.003595 9.15189689 -0.0006561 11.5717926 0.00271606 C13.2470908 0.00204296 14.9223889 0.00107289 16.59768677 -0.00018311 C20.11421129 -0.0016602 23.63071047 0.00049457 27.14723206 0.00515747 C31.66130565 0.01085038 36.17531974 0.00757861 40.68939114 0.00158501 C44.1508428 -0.00202404 47.61228029 -0.00088036 51.07373238 0.0017128 C52.73835825 0.00238134 54.4029854 0.00155617 56.06760979 -0.00076675 C58.39252516 -0.00329841 60.71734347 0.00055479 63.04225159 0.00613403 C63.73479538 0.0041098 64.42733917 0.00208557 65.14086914 0 C69.90967149 0.02126488 69.90967149 0.02126488 72.13819885 1.13552856 C72.13819885 14.33552856 72.13819885 27.53552856 72.13819885 41.13552856 C46.39819885 41.13552856 20.65819885 41.13552856 -5.86180115 41.13552856 C-5.88242615 34.55615356 -5.90305115 27.97677856 -5.92430115 21.19802856 C-5.93795715 18.0792627 -5.93795715 18.0792627 -5.95188904 14.89749146 C-5.95480816 13.2593899 -5.95735673 11.62128762 -5.9594574 9.98318481 C-5.96457336 9.12462891 -5.96968933 8.266073 -5.97496033 7.38150024 C-5.97527024 5.29916805 -5.9242229 3.21692497 -5.86180115 1.13552856 C-4.20497358 -0.521299 -2.21347587 0.00991447 0 0 Z " fill="#F1EDD8" transform="translate(142.86180114746094,95.86447143554688)"/>
<path d="M0 0 C7.0493262 4.15218216 12.06789777 10.16322615 14.5 18 C16.22180402 26.68136479 15.5389818 34.04392746 10.9375 41.6875 C6.54876435 47.82529167 -0.04406369 52.50881274 -7.5 54 C-17.20527996 54.83535273 -24.71953091 53.61726552 -32.3125 47.3125 C-38.43627714 41.50933946 -41.54840233 34.87472542 -41.8125 26.4375 C-41.73924566 19.36322388 -39.44002258 13.07727719 -35.6875 7.125 C-26.13736252 -2.15227641 -12.63481254 -5.75542841 0 0 Z " fill="#000000" transform="translate(362.5,2)"/>
<path d="M0 0 C5.85124082 4.19102716 10.3132773 9.63973766 12.2578125 16.6171875 C13.27714001 25.3444635 12.49007631 32.40857223 7.2578125 39.6171875 C1.85496493 45.71123092 -3.74396018 49.0526669 -11.8203125 49.96484375 C-19.36892325 50.30716447 -24.79975024 49.41059881 -30.7421875 44.6171875 C-37.92041088 38.04182273 -40.80369686 31.8489682 -41.2421875 22.1796875 C-41.00707552 13.70586004 -38.00443792 8.4934305 -31.9296875 2.7421875 C-22.50339804 -4.82341913 -10.66644292 -6.07061221 0 0 Z " fill="#87E7FD" transform="translate(353.7421875,285.3828125)"/>
<path d="M0 0 C7.17590743 4.39466708 12.25540279 10.28026343 14.5625 18.4375 C15.68241999 25.7933381 14.09849564 32.74066129 9.8984375 38.86328125 C4.66078838 45.23818884 -0.34964954 48.8437091 -8.6171875 49.80859375 C-17.77703956 50.15764123 -23.45131396 48.36088607 -30.1875 42.25 C-35.15910863 36.89158429 -37.60794714 31.31488104 -38 24 C-37.62267757 15.55741061 -34.05269564 9.6034993 -27.9375 3.9375 C-20.38594694 -2.55045404 -9.24558793 -4.22396468 0 0 Z " fill="#C4E1F4" transform="translate(424.4375,71.5625)"/>
<path d="M0 0 C1.21107422 -0.03287109 2.42214844 -0.06574219 3.66992188 -0.09960938 C13.66507358 -0.15978818 13.66507358 -0.15978818 17.91796875 2.65234375 C22.2463021 7.00509647 22.91583943 10.41615962 22.91381836 16.52282715 C22.89847046 17.65041443 22.89847046 17.65041443 22.8828125 18.80078125 C22.88079834 19.50344116 22.87878418 20.20610107 22.87670898 20.93005371 C22.86630181 23.53676957 22.83837943 26.14339184 22.8125 28.75 C22.77125 34.586875 22.73 40.42375 22.6875 46.4375 C7.8375 46.4375 -7.0125 46.4375 -22.3125 46.4375 C-22.415625 40.29125 -22.51875 34.145 -22.625 27.8125 C-22.67052002 25.88325684 -22.71604004 23.95401367 -22.76293945 21.96630859 C-22.77755386 20.42286921 -22.79029228 18.87941043 -22.80078125 17.3359375 C-22.82636108 16.54614502 -22.85194092 15.75635254 -22.8782959 14.94262695 C-22.88147679 10.8850808 -22.59064232 8.24903607 -20.03198242 5.00634766 C-13.91920926 -0.76783308 -8.1110073 0.03848132 0 0 Z " fill="#FCDF64" transform="translate(339.3125,143.5625)"/>
<path d="M0 0 C16.15993304 0.0606047 32.31968298 0.13815397 48.47943115 0.23571491 C55.98318067 0.28062479 63.48688324 0.32005044 70.99072266 0.34643555 C77.53329518 0.36945469 84.07571853 0.4028962 90.61817265 0.44870156 C94.08036045 0.47258126 97.54240099 0.4913443 101.00466919 0.49761391 C104.87567278 0.50481938 108.74630832 0.53530002 112.6171875 0.56762695 C113.75726761 0.56619186 114.89734772 0.56475677 116.07197571 0.5632782 C123.47210319 0.6505823 129.57444817 1.23524135 135.53125 6.04296875 C136.50578125 7.10451172 136.50578125 7.10451172 137.5 8.1875 C138.50546875 9.26064453 138.50546875 9.26064453 139.53125 10.35546875 C140.0159375 10.89816406 140.500625 11.44085938 141 12 C138.525 14.97 138.525 14.97 136 18 C135.54109375 17.59007813 135.0821875 17.18015625 134.609375 16.7578125 C133.99578125 16.21898438 133.3821875 15.68015625 132.75 15.125 C132.14671875 14.59132813 131.5434375 14.05765625 130.921875 13.5078125 C127.34201761 10.6992252 124.62669946 9.75022005 120.07289124 9.7484436 C119.0817482 9.74306076 118.09060516 9.73767792 117.06942749 9.73213196 C115.98827667 9.73625595 114.90712585 9.74037994 113.79321289 9.74462891 C112.64973892 9.74100845 111.50626495 9.737388 110.32814026 9.73365784 C107.84436402 9.72676239 105.36057263 9.72425868 102.87678719 9.72560501 C98.94741147 9.72656869 95.01831046 9.71364693 91.088974 9.69662476 C79.91684656 9.64962912 68.74473168 9.62565643 57.57250977 9.61914062 C50.74024601 9.61498778 43.90827607 9.58992173 37.07610893 9.55381393 C34.47059283 9.54399893 31.86503735 9.54169319 29.25950813 9.54698563 C25.61808628 9.55403576 21.97752237 9.53681497 18.33618164 9.51416016 C17.25705505 9.52233261 16.17792847 9.53050507 15.06610107 9.53892517 C10.67210919 9.49019826 7.79990714 9.44609802 3.91648865 7.28036499 C1.92707523 4.91322929 1.07220633 2.87167243 0 0 Z " fill="#E4DCBC" transform="translate(133,31)"/>
<path d="M0 0 C6.75 -0.125 6.75 -0.125 9 1 C9 14.2 9 27.4 9 41 C-16.74 41 -42.48 41 -69 41 C-69 38.36 -69 35.72 -69 33 C-68.22183426 32.99857498 -67.44366852 32.99714996 -66.641922 32.99568176 C-59.2997849 32.97783447 -51.95834853 32.93617107 -44.61652088 32.86790943 C-40.8421672 32.83365275 -37.06821767 32.80853165 -33.29370117 32.80444336 C-29.64935296 32.80015733 -26.00591624 32.77167174 -22.36185265 32.72656822 C-20.97328696 32.71360254 -19.58461214 32.70928233 -18.19599342 32.71384621 C-16.24752738 32.71875756 -14.29906592 32.68977396 -12.35083008 32.65942383 C-11.2427449 32.65276199 -10.13465973 32.64610016 -8.99299622 32.63923645 C-5.03150542 31.79315141 -3.5151045 30.10729807 -1 27 C-0.22987508 23.92776907 -0.22987508 23.92776907 -0.29296875 20.60546875 C-0.26396484 19.40341797 -0.23496094 18.20136719 -0.20507812 16.96289062 C-0.19637695 15.09407227 -0.19637695 15.09407227 -0.1875 13.1875 C-0.16236328 11.92228516 -0.13722656 10.65707031 -0.11132812 9.35351562 C-0.05249509 6.23536457 -0.01618494 3.11861633 0 0 Z " fill="#E0D8B9" transform="translate(206,96)"/>
<path d="M0 0 C8.25 0 16.5 0 25 0 C25 8.25 25 16.5 25 25 C16.75 25 8.5 25 0 25 C0 16.75 0 8.5 0 0 Z " fill="#F1EDD8" transform="translate(163,56)"/>
<path d="M0 0 C5.5433845 3.25372568 5.5433845 3.25372568 7.36279297 6.22729492 C8.21897254 9.95282419 8.24701784 13.56456732 8.1953125 17.36328125 C8.19329834 18.06594116 8.19128418 18.76860107 8.18920898 19.49255371 C8.17880181 22.09926957 8.15087943 24.70589184 8.125 27.3125 C8.08375 33.149375 8.0425 38.98625 8 45 C-6.85 45 -21.7 45 -37 45 C-37 42.36 -37 39.72 -37 37 C-36.08186523 36.97494385 -35.16373047 36.9498877 -34.21777344 36.92407227 C-30.80342975 36.8287973 -27.38924797 36.72957222 -23.97509766 36.62768555 C-22.4989061 36.58443965 -21.02266785 36.54275744 -19.54638672 36.50268555 C-17.42140652 36.44473154 -15.29665907 36.38111054 -13.171875 36.31640625 C-11.8940918 36.27974854 -10.61630859 36.24309082 -9.29980469 36.20532227 C-5.51937588 36.08979427 -5.51937588 36.08979427 -2 35 C0.28683328 31.07990768 0.2332577 27.40777919 0.1953125 22.94921875 C0.19106766 21.96100883 0.19106766 21.96100883 0.18673706 20.95283508 C0.17560924 18.86419938 0.15051948 16.77600444 0.125 14.6875 C0.11496059 13.26498018 0.10583642 11.8424536 0.09765625 10.41992188 C0.07569447 6.94647319 0.04121646 3.47327967 0 0 Z " fill="#F6C24F" transform="translate(354,145)"/>
<path d="M0 0 C4.75666634 4.53062641 7.12285013 8.80764209 7.375 15.375 C6.9991622 23.90362711 4.14561029 29.89818224 -1.77734375 36.046875 C-8.15769457 41.65351017 -14.53009642 42.65910409 -22.8984375 42.39453125 C-27.42241268 41.81906337 -30.19804229 40.51072679 -34 38 C-34.66 37.01 -35.32 36.02 -36 35 C-35.17757813 34.91363281 -34.35515625 34.82726562 -33.5078125 34.73828125 C-22.72080971 33.38056381 -14.38503243 30.83370568 -7.46484375 22.08984375 C-2.54555304 15.07165568 -1.07435104 8.48171873 0 0 Z " fill="#A6C9DB" transform="translate(432,79)"/>
<path d="M0 0 C3.43761572 2.12108204 5.77560839 4.1042085 7 8 C7.47357835 12.26220512 7.29830613 14.4460029 5.25 18.25 C2.653856 21.42306489 0.72843742 23.68803812 -3.40234375 24.43359375 C-7.675718 24.4401783 -10.27129608 24.44025862 -14 22.1875 C-17.94227402 17.87563779 -18.49403037 15.16621575 -18.38671875 9.51171875 C-17.75132935 5.3848967 -16.06637795 3.78761632 -13 1 C-8.6260312 -1.68751073 -4.85358161 -1.20472829 0 0 Z " fill="#C2DEF2" transform="translate(355,16)"/>
<path d="M0 0 C8.25 0 16.5 0 25 0 C25 8.25 25 16.5 25 25 C16.75 25 8.5 25 0 25 C0 24.67 0 24.34 0 24 C6.6 24 13.2 24 20 24 C19.9175 21.958125 19.835 19.91625 19.75 17.8125 C19.70359375 16.66394531 19.6571875 15.51539062 19.609375 14.33203125 C18.90185769 10.46336288 17.76194836 8.7569083 15 6 C11.83754459 4.9458482 9.13051782 4.68724328 5.8125 4.4375 C4.72582031 4.35371094 3.63914063 4.26992188 2.51953125 4.18359375 C1.68808594 4.12300781 0.85664063 4.06242187 0 4 C0 2.68 0 1.36 0 0 Z " fill="#E1D9BB" transform="translate(163,56)"/>
<path d="M0 0 C2 2 2 2 2.375 5.25 C1.86660179 10.3339821 -0.07601447 13.23772877 -3.8125 16.66015625 C-6.50255978 18.30781786 -8.12450659 18.31087474 -11.25 18.1875 C-12.14203125 18.16042969 -13.0340625 18.13335937 -13.953125 18.10546875 C-14.62859375 18.07066406 -15.3040625 18.03585938 -16 18 C-16.33 17.34 -16.66 16.68 -17 16 C-15.783125 15.773125 -14.56625 15.54625 -13.3125 15.3125 C-7.91805403 13.9591231 -5.33942062 10.96129448 -2.25 6.4375 C-1.13013958 4.25377218 -0.44475453 2.40167444 0 0 Z " fill="#A4C6D7" transform="translate(360,22)"/>
</svg>
